<svg width="60" height="60" viewBox="0 0 60 60" fill="none" xmlns="http://www.w3.org/2000/svg">
<g filter="url(#filter0_b_1012_4853)">
<rect width="60" height="60" rx="8" fill="white" fill-opacity="0.3"/>
<rect x="0.5" y="0.5" width="59" height="59" rx="7.5" stroke="url(#paint0_linear_1012_4853)" stroke-opacity="0.4"/>
<path d="M39.15 27.5H20.8625C19.0125 27.5 17.5125 25.9875 17.5125 24.15V20.8625C17.5125 19.0125 19.025 17.5125 20.8625 17.5125H39.15C41 17.5125 42.5 19.025 42.5 20.8625V24.15C42.5 25.9875 40.9875 27.5 39.15 27.5Z" stroke="white" stroke-width="2" stroke-linecap="round" stroke-linejoin="round"/>
<path d="M39.15 42.5H20.8625C19.0125 42.5 17.5125 40.9875 17.5125 39.15V35.8625C17.5125 34.0125 19.025 32.5125 20.8625 32.5125H39.15C41 32.5125 42.5 34.025 42.5 35.8625V39.15C42.5 40.9875 40.9875 42.5 39.15 42.5Z" stroke="white" stroke-width="2" stroke-linecap="round" stroke-linejoin="round"/>
<path d="M22.5 21.25V23.75" stroke="white" stroke-width="2" stroke-linecap="round" stroke-linejoin="round"/>
<path d="M27.5 21.25V23.75" stroke="white" stroke-width="2" stroke-linecap="round" stroke-linejoin="round"/>
<path d="M22.5 36.25V38.75" stroke="white" stroke-width="2" stroke-linecap="round" stroke-linejoin="round"/>
<path d="M27.5 36.25V38.75" stroke="white" stroke-width="2" stroke-linecap="round" stroke-linejoin="round"/>
<path d="M32.5 22.5H37.5" stroke="white" stroke-width="2" stroke-linecap="round" stroke-linejoin="round"/>
<path d="M32.5 37.5H37.5" stroke="white" stroke-width="2" stroke-linecap="round" stroke-linejoin="round"/>
</g>
<defs>
<filter id="filter0_b_1012_4853" x="-16" y="-16" width="92" height="92" filterUnits="userSpaceOnUse" color-interpolation-filters="sRGB">
<feFlood flood-opacity="0" result="BackgroundImageFix"/>
<feGaussianBlur in="BackgroundImageFix" stdDeviation="8"/>
<feComposite in2="SourceAlpha" operator="in" result="effect1_backgroundBlur_1012_4853"/>
<feBlend mode="normal" in="SourceGraphic" in2="effect1_backgroundBlur_1012_4853" result="shape"/>
</filter>
<linearGradient id="paint0_linear_1012_4853" x1="2.6427" y1="-1.2612e-06" x2="71.4406" y2="26.0516" gradientUnits="userSpaceOnUse">
<stop stop-color="white"/>
<stop offset="0.21206" stop-color="white" stop-opacity="0"/>
<stop offset="0.489583" stop-color="white" stop-opacity="0"/>
<stop offset="0.775473" stop-color="white" stop-opacity="0"/>
<stop offset="1" stop-color="white"/>
</linearGradient>
</defs>
</svg>
