<svg width="48" height="48" viewBox="0 0 48 48" fill="none" xmlns="http://www.w3.org/2000/svg">
<rect y="0.00170898" width="48" height="48" rx="24" fill="#5A5A5A"/>
<rect x="0.5" y="0.501709" width="47" height="47" rx="23.5" stroke="url(#paint0_linear_1012_3021)" stroke-opacity="0.4"/>
<path d="M31.24 17.5818H30.84L27.46 14.2018C27.19 13.9318 26.75 13.9318 26.47 14.2018C26.2 14.4718 26.2 14.9118 26.47 15.1918L28.86 17.5818H19.14L21.53 15.1918C21.8 14.9218 21.8 14.4818 21.53 14.2018C21.26 13.9318 20.82 13.9318 20.54 14.2018L17.17 17.5818H16.77C15.87 17.5818 14 17.5818 14 20.1418C14 21.1118 14.2 21.7518 14.62 22.1718C14.86 22.4218 15.15 22.5518 15.46 22.6218C15.75 22.6918 16.06 22.7018 16.36 22.7018H31.64C31.95 22.7018 32.24 22.6818 32.52 22.6218C33.36 22.4218 34 21.8218 34 20.1418C34 17.5818 32.13 17.5818 31.24 17.5818Z" fill="white"/>
<path d="M31.0502 24.0017H16.8702C16.2502 24.0017 15.7802 24.5517 15.8802 25.1617L16.7202 30.3017C17.0002 32.0217 17.7502 34.0017 21.0802 34.0017H26.6902C30.0602 34.0017 30.6602 32.3117 31.0202 30.4217L32.0302 25.1917C32.1502 24.5717 31.6802 24.0017 31.0502 24.0017ZM24.0002 31.5017C21.6602 31.5017 19.7502 29.5917 19.7502 27.2517C19.7502 26.8417 20.0902 26.5017 20.5002 26.5017C20.9102 26.5017 21.2502 26.8417 21.2502 27.2517C21.2502 28.7717 22.4802 30.0017 24.0002 30.0017C25.5202 30.0017 26.7502 28.7717 26.7502 27.2517C26.7502 26.8417 27.0902 26.5017 27.5002 26.5017C27.9102 26.5017 28.2502 26.8417 28.2502 27.2517C28.2502 29.5917 26.3402 31.5017 24.0002 31.5017Z" fill="white"/>
<defs>
<linearGradient id="paint0_linear_1012_3021" x1="2.11416" y1="0.00170798" x2="57.1525" y2="20.843" gradientUnits="userSpaceOnUse">
<stop stop-color="white"/>
<stop offset="0.21206" stop-color="white" stop-opacity="0"/>
<stop offset="0.489583" stop-color="white" stop-opacity="0"/>
<stop offset="0.775473" stop-color="white" stop-opacity="0"/>
<stop offset="1" stop-color="white"/>
</linearGradient>
</defs>
</svg>
