<svg width="120" height="120" viewBox="0 0 120 120" fill="none" xmlns="http://www.w3.org/2000/svg">
<path fill-rule="evenodd" clip-rule="evenodd" d="M32.002 10.9116C36.8265 10.5264 41.4065 8.62883 45.0897 5.48904C49.2498 1.94592 54.5356 0 60 0C65.4644 0 70.7502 1.94592 74.9103 5.48904C78.5935 8.62883 83.1735 10.5264 87.998 10.9116C93.4463 11.3471 98.5614 13.7089 102.426 17.5737C106.291 21.4386 108.653 26.5537 109.088 32.002C109.471 36.8246 111.368 41.4072 114.511 45.0897C118.054 49.2498 120 54.5356 120 60C120 65.4644 118.054 70.7502 114.511 74.9103C111.371 78.5935 109.474 83.1735 109.088 87.998C108.653 93.4463 106.291 98.5614 102.426 102.426C98.5614 106.291 93.4463 108.653 87.998 109.088C83.1735 109.474 78.5935 111.371 74.9103 114.511C70.7502 118.054 65.4644 120 60 120C54.5356 120 49.2498 118.054 45.0897 114.511C41.4065 111.371 36.8265 109.474 32.002 109.088C26.5537 108.653 21.4386 106.291 17.5737 102.426C13.7089 98.5614 11.3471 93.4463 10.9116 87.998C10.5264 83.1735 8.62883 78.5935 5.48904 74.9103C1.94592 70.7502 0 65.4644 0 60C0 54.5356 1.94592 49.2498 5.48904 45.0897C8.62883 41.4065 10.5264 36.8265 10.9116 32.002C11.3471 26.5537 13.7089 21.4386 17.5737 17.5737C21.4386 13.7089 26.5537 11.3471 32.002 10.9116ZM87.803 50.3023C89.1692 48.8878 89.9252 46.9932 89.9081 45.0267C89.891 43.0602 89.1022 41.1791 87.7116 39.7885C86.321 38.3979 84.4399 37.6091 82.4734 37.592C80.5069 37.575 78.6124 38.3309 77.1978 39.6972L52.4999 64.3951L42.8022 54.6974C41.3877 53.3312 39.4931 52.5752 37.5266 52.5923C35.5601 52.6094 33.679 53.3982 32.2884 54.7888C30.8978 56.1794 30.109 58.0605 30.0919 60.027C30.0748 61.9935 30.8308 63.8881 32.197 65.3026L47.1973 80.3029C48.6038 81.7089 50.5111 82.4988 52.4999 82.4988C54.4886 82.4988 56.396 81.7089 57.8025 80.3029L87.803 50.3023Z" fill="white"/>
</svg>
