<svg width="60" height="60" viewBox="0 0 60 60" fill="none" xmlns="http://www.w3.org/2000/svg">
<g filter="url(#filter0_b_261_9842)">
<rect width="60" height="60" rx="8" fill="white" fill-opacity="0.3"/>
<rect x="0.5" y="0.5" width="59" height="59" rx="7.5" stroke="url(#paint0_linear_261_9842)" stroke-opacity="0.4"/>
<path d="M26.25 17.5H33.75C40 17.5 42.5 20 42.5 26.25V33.75C42.5 40 40 42.5 33.75 42.5H26.25C20 42.5 17.5 40 17.5 33.75V26.25C17.5 20 20 17.5 26.25 17.5Z" stroke="white" stroke-width="2" stroke-linecap="round" stroke-linejoin="round"/>
<path d="M26.25 30.6125L30 26.8625L33.75 30.6125" stroke="white" stroke-width="2" stroke-linecap="round" stroke-linejoin="round"/>
<path d="M30 26.8625V36.8625" stroke="white" stroke-width="2" stroke-linecap="round" stroke-linejoin="round"/>
<path d="M22.5 24.3625C27.3625 22.7375 32.6375 22.7375 37.5 24.3625" stroke="white" stroke-width="2" stroke-linecap="round" stroke-linejoin="round"/>
</g>
<defs>
<filter id="filter0_b_261_9842" x="-16" y="-16" width="92" height="92" filterUnits="userSpaceOnUse" color-interpolation-filters="sRGB">
<feFlood flood-opacity="0" result="BackgroundImageFix"/>
<feGaussianBlur in="BackgroundImageFix" stdDeviation="8"/>
<feComposite in2="SourceAlpha" operator="in" result="effect1_backgroundBlur_261_9842"/>
<feBlend mode="normal" in="SourceGraphic" in2="effect1_backgroundBlur_261_9842" result="shape"/>
</filter>
<linearGradient id="paint0_linear_261_9842" x1="2.6427" y1="-1.2612e-06" x2="71.4406" y2="26.0516" gradientUnits="userSpaceOnUse">
<stop stop-color="white"/>
<stop offset="0.21206" stop-color="white" stop-opacity="0"/>
<stop offset="0.489583" stop-color="white" stop-opacity="0"/>
<stop offset="0.775473" stop-color="white" stop-opacity="0"/>
<stop offset="1" stop-color="white"/>
</linearGradient>
</defs>
</svg>
