<svg width="17" height="16" viewBox="0 0 17 16" fill="none" xmlns="http://www.w3.org/2000/svg">
<path d="M4.52415 6.92227C4.77369 6.16731 5.25528 5.51043 5.90021 5.04536C6.54515 4.58029 7.32049 4.33077 8.11562 4.3324C9.01695 4.3324 9.83189 4.6524 10.4719 5.17613L12.3343 3.31427C11.1994 2.32493 9.74495 1.71427 8.11562 1.71427C5.59295 1.71427 3.42122 3.1532 2.37695 5.26093L4.52415 6.92227Z" fill="#EA4335"/>
<path d="M10.2699 11.3212C9.6886 11.6961 8.95047 11.8961 8.11527 11.8961C7.3233 11.8978 6.55089 11.6502 5.90739 11.1886C5.26389 10.727 4.7819 10.0746 4.52967 9.32387L2.375 10.9596C2.90366 12.0296 3.72181 12.9299 4.73651 13.5583C5.7512 14.1866 6.92178 14.5178 8.11527 14.5143C9.67953 14.5143 11.1739 13.958 12.2934 12.9143L10.2705 11.3212H10.2699Z" fill="#34A853"/>
<path d="M12.2934 12.9143C13.464 11.822 14.224 10.1964 14.224 8.11427C14.224 7.7356 14.1659 7.32867 14.079 6.95053H8.11523V9.4236H11.5478C11.3787 10.2551 10.9238 10.8988 10.2704 11.3212L12.2934 12.9143Z" fill="#4285F4"/>
<path d="M4.52931 9.32387C4.39883 8.93395 4.33254 8.52543 4.33304 8.11427C4.33304 7.6972 4.39971 7.29667 4.52344 6.92227L2.37624 5.26093C1.93697 6.1477 1.71053 7.12468 1.71491 8.11427C1.71491 9.13827 1.95224 10.1036 2.37464 10.9596L4.52931 9.32387Z" fill="#FBBC05"/>
</svg>
