<svg width="259" height="55" viewBox="0 0 259 55" fill="none" xmlns="http://www.w3.org/2000/svg">
<path d="M0.308889 3.73802C3.82967 3.2122 8.43272 2.77197 14.2824 2.77197C21.4747 2.77197 26.749 4.26384 30.1054 6.9541C33.2015 9.35088 35.0372 13.0072 35.0372 17.4828C35.0372 21.9584 33.5303 25.6269 30.6808 28.2438C26.8312 31.9001 20.5568 33.7711 13.4331 33.7711C11.2548 33.7711 9.25469 33.6977 7.56965 33.3186V53.4956H0.281494V3.73802H0.308889ZM7.58334 28.0115C9.17249 28.3906 11.1863 28.5373 13.6111 28.5373C22.4062 28.5373 27.7628 24.722 27.7628 17.7763C27.7628 10.8305 22.4884 7.92015 14.4605 7.92015C11.2822 7.92015 8.8574 8.14026 7.59704 8.44597V28.0237L7.58334 28.0115Z" fill="white"/>
<path d="M77.2177 43.6271C77.2177 47.3568 77.2999 50.6463 77.5465 53.4833H71.0118L70.5871 47.5769H70.4227C68.4911 50.4873 64.2305 54.3026 57.0245 54.3026C50.668 54.3026 43.051 51.1599 43.051 38.4667V17.3238H50.4214V37.3417C50.4214 44.2141 52.764 48.8487 59.4631 48.8487C64.3949 48.8487 67.8335 45.7916 69.176 42.869C69.6007 41.9029 69.8473 40.7045 69.8473 39.5062V17.3115H77.2177V43.6149V43.6271Z" fill="white"/>
<path d="M89.4387 0.448486H96.8091V53.4955H89.4387V0.448486Z" fill="white"/>
<path d="M109.193 0.448486H116.563V53.4955H109.193V0.448486Z" fill="white"/>
<path d="M133.043 36.6077C133.207 45.4978 139.577 49.1541 146.934 49.1541C152.208 49.1541 155.387 48.3348 158.154 47.2832L159.414 51.9911C156.825 53.0428 152.387 54.2289 145.934 54.2289C133.467 54.2289 126.015 46.9041 126.015 35.9963C126.015 25.0885 133.207 16.4919 145.016 16.4919C158.236 16.4919 161.757 26.8739 161.757 33.5262C161.757 34.8713 161.593 35.9229 161.51 36.5833H133.056L133.043 36.6077ZM154.647 31.8998C154.729 27.7177 152.715 21.2121 144.441 21.2121C136.988 21.2121 133.728 27.3386 133.139 31.8998H154.647Z" fill="white"/>
<path d="M170.883 28.6103C170.883 24.3548 170.801 20.6863 170.554 17.3235H176.993L177.239 24.416H177.568C179.404 19.5613 183.843 16.4919 188.788 16.4919C189.624 16.4919 190.213 16.5653 190.884 16.7121V22.9119C190.131 22.7651 189.377 22.6918 188.377 22.6918C183.185 22.6918 179.5 26.2013 178.5 31.1294C178.335 32.0221 178.171 33.0737 178.171 34.1865V53.4585H170.883V28.5859V28.6103Z" fill="white"/>
<path d="M219.583 0.448486H221.09L246.955 53.4955H245.119L235.831 34.5169H204.774L195.485 53.4955H193.65L219.597 0.448486H219.583ZM235.077 33.0251L220.35 2.61292L205.459 33.0251H235.091H235.077Z" fill="white"/>
<path d="M256.833 53.4955V0.448486H258.505V53.4955H256.833Z" fill="white"/>
</svg>
