<svg width="42" height="24" viewBox="0 0 42 24" fill="none" xmlns="http://www.w3.org/2000/svg">
<circle cx="12" cy="12" r="11.5" fill="#D9D9D9" stroke="white"/>
<path d="M10.84 12.36H11.71V14.385C11.71 14.685 12.08 14.825 12.28 14.6L14.41 12.18C14.595 11.97 14.445 11.64 14.165 11.64H13.295V9.61499C13.295 9.31499 12.925 9.17499 12.725 9.39999L10.595 11.82C10.41 12.03 10.56 12.36 10.84 12.36Z" stroke="#292D32" stroke-miterlimit="10" stroke-linecap="round" stroke-linejoin="round"/>
<path d="M12.4851 17C15.2465 17 17.4851 14.7614 17.4851 12C17.4851 9.23858 15.2465 7 12.4851 7C9.72368 7 7.48511 9.23858 7.48511 12C7.48511 14.7614 9.72368 17 12.4851 17Z" stroke="#292D32" stroke-miterlimit="10" stroke-linecap="round" stroke-linejoin="round"/>
<circle cx="19" cy="4" r="3" fill="#2EB000"/>
<circle cx="30" cy="12" r="11.5" fill="#D9D9D9" stroke="white"/>
<path d="M30.96 7.13L34.215 8.885C34.595 9.09 34.595 9.675 34.215 9.88L30.96 11.635C30.67 11.79 30.33 11.79 30.04 11.635L26.785 9.88C26.405 9.675 26.405 9.09 26.785 8.885L30.04 7.13C30.33 6.975 30.67 6.975 30.96 7.13Z" stroke="#292D32" stroke-linecap="round" stroke-linejoin="round"/>
<path d="M26.305 11.065L29.33 12.58C29.705 12.77 29.945 13.155 29.945 13.575V16.435C29.945 16.85 29.51 17.115 29.14 16.93L26.115 15.415C25.74 15.225 25.5 14.84 25.5 14.42V11.56C25.5 11.145 25.935 10.88 26.305 11.065Z" stroke="#292D32" stroke-linecap="round" stroke-linejoin="round"/>
<path d="M34.6949 11.065L31.6699 12.58C31.2949 12.77 31.0549 13.155 31.0549 13.575V16.435C31.0549 16.85 31.4899 17.115 31.8599 16.93L34.8849 15.415C35.2599 15.225 35.4999 14.84 35.4999 14.42V11.56C35.4999 11.145 35.0649 10.88 34.6949 11.065Z" stroke="#292D32" stroke-linecap="round" stroke-linejoin="round"/>
<circle cx="38" cy="4" r="3" fill="#FAC300"/>
</svg>
