<svg width="28" height="28" viewBox="0 0 28 28" fill="none" xmlns="http://www.w3.org/2000/svg">
<path d="M3.5 9.1C3.5 7.13982 3.5 6.15972 3.88148 5.41103C4.21703 4.75247 4.75247 4.21703 5.41103 3.88148C6.15972 3.5 7.13982 3.5 9.1 3.5H18.9C20.8602 3.5 21.8403 3.5 22.589 3.88148C23.2475 4.21703 23.783 4.75247 24.1185 5.41103C24.5 6.15972 24.5 7.13982 24.5 9.1V15.75C24.5 17.3808 24.5 18.1962 24.2336 18.8394C23.8783 19.697 23.197 20.3783 22.3394 20.7336C21.6962 21 20.8808 21 19.25 21C18.68 21 18.395 21 18.1306 21.0624C17.778 21.1456 17.4497 21.3098 17.1716 21.5419C16.963 21.716 16.792 21.944 16.45 22.4L14.7467 24.6711C14.4934 25.0089 14.3667 25.1777 14.2114 25.2381C14.0754 25.291 13.9246 25.291 13.7886 25.2381C13.6333 25.1777 13.5066 25.0089 13.2533 24.6711L11.55 22.4C11.208 21.944 11.037 21.716 10.8284 21.5419C10.5503 21.3098 10.222 21.1456 9.86942 21.0624C9.60501 21 9.32001 21 8.75 21C7.1192 21 6.30381 21 5.66061 20.7336C4.80301 20.3783 4.12165 19.697 3.76642 18.8394C3.5 18.1962 3.5 17.3808 3.5 15.75V9.1Z" stroke="white" stroke-width="1.5" stroke-linecap="round" stroke-linejoin="round"/>
</svg>
