<svg width="60" height="60" viewBox="0 0 60 60" fill="none" xmlns="http://www.w3.org/2000/svg">
<g filter="url(#filter0_b_261_9556)">
<rect width="60" height="60" rx="8" fill="white" fill-opacity="0.3"/>
<rect x="0.5" y="0.5" width="59" height="59" rx="7.5" stroke="url(#paint0_linear_261_9556)" stroke-opacity="0.4"/>
<path d="M39.7069 23.2934L33.7066 17.2931C33.5196 17.1061 33.2648 17 33.0001 17H23.0998C21.3903 17.0044 20.0044 18.3901 20.0002 20.1007V39.8993C20.0046 41.6099 21.3904 42.9958 23.0998 43H36.9004C38.6099 42.9956 39.9958 41.6099 40 39.8993V23.9999C40 23.7352 39.894 23.4804 39.7069 23.2934ZM37.9996 39.8996C37.9996 40.1916 37.8837 40.4716 37.6781 40.6783C37.4713 40.8839 37.1913 40.9999 36.9004 40.9999H23.0998C22.8088 40.9999 22.5288 40.8839 22.3222 40.6783C22.1165 40.4716 22.0006 40.1916 22.0006 39.8996V20.1009C22.0006 19.4928 22.4928 19.0006 23.0998 19.0006H32.5813L37.9997 24.4146L37.9996 39.8996Z" fill="white"/>
<path d="M30.9996 20.9994V25.0002C30.9996 25.2649 31.1057 25.5197 31.2927 25.7067C31.4808 25.8949 31.7346 25.9999 32.0004 25.9999H36.0001C36.5524 25.9999 36.9997 25.5525 36.9997 25.0002C36.9997 24.4478 36.5524 23.9994 36.0001 23.9994H32.9999V20.9993C32.9999 20.447 32.5526 19.9996 32.0003 19.9996C31.4479 19.9996 30.9996 20.447 30.9996 20.9994Z" fill="white"/>
<path d="M33.9998 32.0007H26.0004C25.4481 32.0007 25.0007 32.4481 25.0007 33.0004C25.0007 33.5527 25.4481 34.0001 26.0004 34.0001H33.9998C34.5522 34.0001 34.9995 33.5527 34.9995 33.0004C34.9995 32.4481 34.5522 32.0007 33.9998 32.0007Z" fill="white"/>
<path d="M26.0004 29.9997H30.0001C30.5525 29.9997 30.9998 29.5523 30.9998 29C30.9998 28.4477 30.5524 27.9993 30.0001 27.9993H26.0004C25.4481 27.9993 25.0007 28.4477 25.0007 29C25.0007 29.5524 25.4481 29.9997 26.0004 29.9997Z" fill="white"/>
<path d="M33.9998 36.0009H26.0004C25.4481 36.0009 25.0007 36.4482 25.0007 37.0005C25.0007 37.5528 25.4481 38.0002 26.0004 38.0002H33.9998C34.5522 38.0002 34.9995 37.5528 34.9995 37.0005C34.9995 36.4482 34.5522 36.0009 33.9998 36.0009Z" fill="white"/>
</g>
<defs>
<filter id="filter0_b_261_9556" x="-16" y="-16" width="92" height="92" filterUnits="userSpaceOnUse" color-interpolation-filters="sRGB">
<feFlood flood-opacity="0" result="BackgroundImageFix"/>
<feGaussianBlur in="BackgroundImageFix" stdDeviation="8"/>
<feComposite in2="SourceAlpha" operator="in" result="effect1_backgroundBlur_261_9556"/>
<feBlend mode="normal" in="SourceGraphic" in2="effect1_backgroundBlur_261_9556" result="shape"/>
</filter>
<linearGradient id="paint0_linear_261_9556" x1="2.6427" y1="-1.2612e-06" x2="71.4406" y2="26.0516" gradientUnits="userSpaceOnUse">
<stop stop-color="white"/>
<stop offset="0.21206" stop-color="white" stop-opacity="0"/>
<stop offset="0.489583" stop-color="white" stop-opacity="0"/>
<stop offset="0.775473" stop-color="white" stop-opacity="0"/>
<stop offset="1" stop-color="white"/>
</linearGradient>
</defs>
</svg>
