<svg width="40" height="40" viewBox="0 0 40 40" fill="none" xmlns="http://www.w3.org/2000/svg">
<g filter="url(#filter0_b_261_10043)">
<rect width="40" height="40" rx="8" fill="white" fill-opacity="0.3"/>
<rect x="0.5" y="0.5" width="39" height="39" rx="7.5" stroke="url(#paint0_linear_261_10043)" stroke-opacity="0.4"/>
<path d="M16.6667 23.3333L20 20M20 20L23.3333 23.3333M20 20V27.5M26.6667 23.9524C27.6846 23.1117 28.3333 21.8399 28.3333 20.4167C28.3333 17.8854 26.2813 15.8333 23.75 15.8333C23.5679 15.8333 23.3975 15.7383 23.3051 15.5814C22.2184 13.7374 20.212 12.5 17.9167 12.5C14.4649 12.5 11.6667 15.2982 11.6667 18.75C11.6667 20.4718 12.3629 22.0309 13.4891 23.1613" stroke="white" stroke-width="1.66667" stroke-linecap="round" stroke-linejoin="round"/>
</g>
<defs>
<filter id="filter0_b_261_10043" x="-16" y="-16" width="72" height="72" filterUnits="userSpaceOnUse" color-interpolation-filters="sRGB">
<feFlood flood-opacity="0" result="BackgroundImageFix"/>
<feGaussianBlur in="BackgroundImageFix" stdDeviation="8"/>
<feComposite in2="SourceAlpha" operator="in" result="effect1_backgroundBlur_261_10043"/>
<feBlend mode="normal" in="SourceGraphic" in2="effect1_backgroundBlur_261_10043" result="shape"/>
</filter>
<linearGradient id="paint0_linear_261_10043" x1="1.7618" y1="-8.40801e-07" x2="47.6271" y2="17.3677" gradientUnits="userSpaceOnUse">
<stop stop-color="white"/>
<stop offset="0.21206" stop-color="white" stop-opacity="0"/>
<stop offset="0.489583" stop-color="white" stop-opacity="0"/>
<stop offset="0.775473" stop-color="white" stop-opacity="0"/>
<stop offset="1" stop-color="white"/>
</linearGradient>
</defs>
</svg>
