<svg width="20" height="26" viewBox="0 0 20 26" fill="none" xmlns="http://www.w3.org/2000/svg">
<path d="M19.7067 6.29341L13.7064 0.293126C13.5194 0.106098 13.2645 0 12.9999 0H3.09954C1.39003 0.00437519 0.00419992 1.39012 0 3.10066V22.8993C0.00437491 24.6099 1.39012 25.9958 3.09954 26H16.9002C18.6097 25.9956 19.9955 24.6099 19.9997 22.8993V6.99986C19.9997 6.73518 19.8937 6.48041 19.7067 6.29341ZM17.9994 22.8996C17.9994 23.1916 17.8834 23.4716 17.6778 23.6783C17.4711 23.8839 17.1911 23.9999 16.9002 23.9999H3.09954C2.8086 23.9999 2.5286 23.8839 2.32191 23.6783C2.11629 23.4716 2.00036 23.1916 2.00036 22.8996V3.10091C2.00036 2.49279 2.49254 2.00062 3.09957 2.00062H12.581L17.9995 7.41459L17.9994 22.8996Z" fill="white"/>
<path d="M10.9991 3.99948V8.00032C10.9991 8.265 11.1052 8.51985 11.2922 8.70685C11.4804 8.89498 11.7341 8.99998 11.9999 8.99998H15.9996C16.5519 8.99998 16.9992 8.55263 16.9992 8.00032C16.9992 7.44797 16.5519 6.99956 15.9996 6.99956H12.9994V3.99942C12.9994 3.44707 12.5521 2.99976 11.9998 2.99976C11.4474 2.99976 10.9991 3.44716 10.9991 3.99948Z" fill="white"/>
<path d="M13.9991 15.0007H5.99966C5.44732 15.0007 5 15.4481 5 16.0004C5 16.5527 5.44735 17.0001 5.99966 17.0001H13.9991C14.5514 17.0001 14.9988 16.5527 14.9988 16.0004C14.9988 15.4481 14.5514 15.0007 13.9991 15.0007Z" fill="white"/>
<path d="M5.99966 12.9997H9.99938C10.5517 12.9997 10.999 12.5523 10.999 12C10.999 11.4477 10.5517 10.9993 9.99938 10.9993H5.99966C5.44732 10.9993 5 11.4477 5 12C5 12.5524 5.44735 12.9997 5.99966 12.9997Z" fill="white"/>
<path d="M13.9991 19.0007H5.99966C5.44732 19.0007 5 19.4481 5 20.0004C5 20.5527 5.44735 21.0001 5.99966 21.0001H13.9991C14.5514 21.0001 14.9988 20.5527 14.9988 20.0004C14.9988 19.4481 14.5514 19.0007 13.9991 19.0007Z" fill="white"/>
</svg>
