<svg width="22" height="24" viewBox="0 0 22 24" fill="none" xmlns="http://www.w3.org/2000/svg">
<path d="M21.8163 20.9521C21.8208 21.8054 21.4588 22.6196 20.8224 23.1879C20.1859 23.7563 19.3361 24.0241 18.4888 23.9235C16.964 23.6978 15.8466 22.3709 15.8837 20.83V3.11368C15.8469 1.57105 16.967 0.243503 18.4938 0.0201969C19.3404 -0.0788853 20.1888 0.189681 20.824 0.75785C21.4593 1.32602 21.8206 2.13928 21.8163 2.99157V20.9521Z" fill="white"/>
<path d="M3.1489 18.0164C4.78713 18.0164 6.11519 19.3445 6.11519 20.9827C6.11519 22.6209 4.78713 23.949 3.1489 23.949C1.51067 23.949 0.182617 22.6209 0.182617 20.9827C0.182617 19.3445 1.51067 18.0164 3.1489 18.0164ZM10.9538 9.02599C9.30785 9.11621 8.03078 10.4969 8.06896 12.1449V20.1127C8.06896 22.2751 9.02041 23.5877 10.4145 23.8676C11.2897 24.045 12.1983 23.8193 12.8888 23.2531C13.5793 22.6869 13.9786 21.8401 13.9761 20.9471V12.0075C13.9776 11.2092 13.6583 10.4438 13.09 9.8832C12.5217 9.32256 11.752 9.0137 10.9538 9.02599Z" fill="white"/>
</svg>
