<svg width="18" height="18" viewBox="0 0 18 18" fill="none" xmlns="http://www.w3.org/2000/svg">
<path d="M10.2503 5.34024C10.2503 6.0307 9.69062 6.58969 9.00015 6.58969C8.30969 6.58969 7.75 6.0307 7.75 5.34024C7.75 4.64978 8.30969 4.09009 9.00015 4.09009C9.69062 4.09009 10.2503 4.64978 10.2503 5.34024Z" fill="white"/>
<path d="M10.0398 8.7644V12.8848C10.0398 13.4592 9.57433 13.9247 8.99987 13.9247C8.42542 13.9247 7.95996 13.4592 7.95996 12.8848V8.7644C7.95996 8.19065 8.42542 7.72449 8.99987 7.72449C9.57433 7.72449 10.0398 8.19065 10.0398 8.7644Z" fill="white"/>
<path d="M9 0C4.02966 0 0 4.02966 0 9C0 13.9703 4.02966 18 9 18C13.9703 18 18 13.9703 18 9C18 4.02966 13.9703 0 9 0ZM14.2326 14.2326C12.8489 15.6396 10.9602 16.4362 8.9865 16.4446C7.01352 16.4531 5.11794 15.6726 3.72294 14.2769C2.32724 12.8819 1.54674 10.9863 1.5552 9.01332C1.56364 7.03962 2.36029 5.15106 3.76722 3.76722C5.15097 2.36027 7.03962 1.56366 9.01332 1.5552C10.9863 1.54676 12.8819 2.32724 14.2769 3.72294C15.6726 5.11794 16.4531 7.01352 16.4446 8.9865C16.4362 10.9602 15.6395 12.8488 14.2326 14.2326Z" fill="white"/>
<path d="M9 0C4.02966 0 0 4.02966 0 9C0 13.9703 4.02966 18 9 18C13.9703 18 18 13.9703 18 9C18 4.02966 13.9703 0 9 0ZM14.2326 14.2326C12.8489 15.6396 10.9602 16.4362 8.9865 16.4446C7.01352 16.4531 5.11794 15.6726 3.72294 14.2769C2.32724 12.8819 1.54674 10.9863 1.5552 9.01332C1.56364 7.03962 2.36029 5.15106 3.76722 3.76722C5.15097 2.36027 7.03962 1.56366 9.01332 1.5552C10.9863 1.54676 12.8819 2.32724 14.2769 3.72294C15.6726 5.11794 16.4531 7.01352 16.4446 8.9865C16.4362 10.9602 15.6395 12.8488 14.2326 14.2326Z" fill="white"/>
</svg>
