<svg width="27" height="32" viewBox="0 0 27 32" fill="none" xmlns="http://www.w3.org/2000/svg">
<path fill-rule="evenodd" clip-rule="evenodd" d="M9.81092 1.63464C11.1348 0.310764 13.2812 0.310764 14.6051 1.63464C15.929 2.95852 15.929 5.10495 14.6051 6.42882L6.5566 14.4773C5.23272 15.8012 3.08629 15.8012 1.76242 14.4773C0.438539 13.1534 0.438539 11.007 1.76242 9.68314L9.81092 1.63464ZM12.5634 12.6425C13.8872 11.3186 16.0337 11.3186 17.3575 12.6425C18.6814 13.9663 18.6814 16.1128 17.3575 17.4366L9.30904 25.4851C7.98516 26.809 5.83873 26.809 4.51486 25.4851C3.19098 24.1613 3.19098 22.0148 4.51486 20.691L12.5634 12.6425ZM25.6129 18.1468C24.289 16.823 22.1426 16.823 20.8187 18.1468L12.7702 26.1953C11.4464 27.5192 11.4464 29.6657 12.7702 30.9895C14.0941 32.3134 16.2405 32.3134 17.5644 30.9895L25.6129 22.941C26.9368 21.6172 26.9368 19.4707 25.6129 18.1468Z" fill="white"/>
</svg>
