<svg width="60" height="60" viewBox="0 0 60 60" fill="none" xmlns="http://www.w3.org/2000/svg">
<g filter="url(#filter0_b_261_9506)">
<rect width="60" height="60" rx="8" fill="white" fill-opacity="0.3"/>
<rect x="0.5" y="0.5" width="59" height="59" rx="7.5" stroke="url(#paint0_linear_261_9506)" stroke-opacity="0.4"/>
<path fill-rule="evenodd" clip-rule="evenodd" d="M26.8112 14.6348C28.135 13.3109 30.2815 13.3109 31.6053 14.6348C32.9292 15.9586 32.9292 18.1051 31.6053 19.4289L23.5568 27.4774C22.233 28.8013 20.0865 28.8013 18.7627 27.4774C17.4388 26.1536 17.4388 24.0071 18.7627 22.6833L26.8112 14.6348ZM29.5636 25.6426C30.8875 24.3187 33.0339 24.3187 34.3578 25.6426C35.6817 26.9665 35.6817 29.1129 34.3578 30.4368L26.3093 38.4853C24.9854 39.8091 22.839 39.8091 21.5151 38.4853C20.1912 37.1614 20.1912 35.015 21.5151 33.6911L29.5636 25.6426ZM42.6132 31.147C41.2893 29.8231 39.1428 29.8231 37.819 31.147L29.7705 39.1955C28.4466 40.5193 28.4466 42.6658 29.7705 43.9897C31.0943 45.3135 33.2408 45.3135 34.5647 43.9897L42.6132 35.9412C43.937 34.6173 43.937 32.4708 42.6132 31.147Z" fill="white"/>
</g>
<defs>
<filter id="filter0_b_261_9506" x="-16" y="-16" width="92" height="92" filterUnits="userSpaceOnUse" color-interpolation-filters="sRGB">
<feFlood flood-opacity="0" result="BackgroundImageFix"/>
<feGaussianBlur in="BackgroundImageFix" stdDeviation="8"/>
<feComposite in2="SourceAlpha" operator="in" result="effect1_backgroundBlur_261_9506"/>
<feBlend mode="normal" in="SourceGraphic" in2="effect1_backgroundBlur_261_9506" result="shape"/>
</filter>
<linearGradient id="paint0_linear_261_9506" x1="2.6427" y1="-1.2612e-06" x2="71.4406" y2="26.0516" gradientUnits="userSpaceOnUse">
<stop stop-color="white"/>
<stop offset="0.21206" stop-color="white" stop-opacity="0"/>
<stop offset="0.489583" stop-color="white" stop-opacity="0"/>
<stop offset="0.775473" stop-color="white" stop-opacity="0"/>
<stop offset="1" stop-color="white"/>
</linearGradient>
</defs>
</svg>
