<svg width="18" height="18" viewBox="0 0 18 18" fill="none" xmlns="http://www.w3.org/2000/svg">
<path fill-rule="evenodd" clip-rule="evenodd" d="M1.53217 1.53217C2.09743 0.96691 2.88439 0.75 3.75 0.75H5.25C6.11561 0.75 6.90257 0.96691 7.46783 1.53217C8.03309 2.09743 8.25 2.88439 8.25 3.75V5.25C8.25 6.11561 8.03309 6.90257 7.46783 7.46783C6.90257 8.03309 6.11561 8.25 5.25 8.25H3.75C2.88439 8.25 2.09743 8.03309 1.53217 7.46783C0.96691 6.90257 0.75 6.11561 0.75 5.25V3.75C0.75 2.88439 0.96691 2.09743 1.53217 1.53217ZM2.59283 2.59283C2.40809 2.77757 2.25 3.11561 2.25 3.75V5.25C2.25 5.88439 2.40809 6.22243 2.59283 6.40717C2.77757 6.59191 3.11561 6.75 3.75 6.75H5.25C5.88439 6.75 6.22243 6.59191 6.40717 6.40717C6.59191 6.22243 6.75 5.88439 6.75 5.25V3.75C6.75 3.11561 6.59191 2.77757 6.40717 2.59283C6.22243 2.40809 5.88439 2.25 5.25 2.25H3.75C3.11561 2.25 2.77757 2.40809 2.59283 2.59283Z" fill="white"/>
<path fill-rule="evenodd" clip-rule="evenodd" d="M10.5322 1.53217C11.0974 0.96691 11.8844 0.75 12.75 0.75H14.25C15.1156 0.75 15.9026 0.96691 16.4678 1.53217C17.0331 2.09743 17.25 2.88439 17.25 3.75V5.25C17.25 6.11561 17.0331 6.90257 16.4678 7.46783C15.9026 8.03309 15.1156 8.25 14.25 8.25H12.75C11.8844 8.25 11.0974 8.03309 10.5322 7.46783C9.96691 6.90257 9.75 6.11561 9.75 5.25V3.75C9.75 2.88439 9.96691 2.09743 10.5322 1.53217ZM11.5928 2.59283C11.4081 2.77757 11.25 3.11561 11.25 3.75V5.25C11.25 5.88439 11.4081 6.22243 11.5928 6.40717C11.7776 6.59191 12.1156 6.75 12.75 6.75H14.25C14.8844 6.75 15.2224 6.59191 15.4072 6.40717C15.5919 6.22243 15.75 5.88439 15.75 5.25V3.75C15.75 3.11561 15.5919 2.77757 15.4072 2.59283C15.2224 2.40809 14.8844 2.25 14.25 2.25H12.75C12.1156 2.25 11.7776 2.40809 11.5928 2.59283Z" fill="white"/>
<path fill-rule="evenodd" clip-rule="evenodd" d="M10.5322 10.5322C11.0974 9.96691 11.8844 9.75 12.75 9.75H14.25C15.1156 9.75 15.9026 9.96691 16.4678 10.5322C17.0331 11.0974 17.25 11.8844 17.25 12.75V14.25C17.25 15.1156 17.0331 15.9026 16.4678 16.4678C15.9026 17.0331 15.1156 17.25 14.25 17.25H12.75C11.8844 17.25 11.0974 17.0331 10.5322 16.4678C9.96691 15.9026 9.75 15.1156 9.75 14.25V12.75C9.75 11.8844 9.96691 11.0974 10.5322 10.5322ZM11.5928 11.5928C11.4081 11.7776 11.25 12.1156 11.25 12.75V14.25C11.25 14.8844 11.4081 15.2224 11.5928 15.4072C11.7776 15.5919 12.1156 15.75 12.75 15.75H14.25C14.8844 15.75 15.2224 15.5919 15.4072 15.4072C15.5919 15.2224 15.75 14.8844 15.75 14.25V12.75C15.75 12.1156 15.5919 11.7776 15.4072 11.5928C15.2224 11.4081 14.8844 11.25 14.25 11.25H12.75C12.1156 11.25 11.7776 11.4081 11.5928 11.5928Z" fill="white"/>
<path fill-rule="evenodd" clip-rule="evenodd" d="M1.53217 10.5322C2.09743 9.96691 2.88439 9.75 3.75 9.75H5.25C6.11561 9.75 6.90257 9.96691 7.46783 10.5322C8.03309 11.0974 8.25 11.8844 8.25 12.75V14.25C8.25 15.1156 8.03309 15.9026 7.46783 16.4678C6.90257 17.0331 6.11561 17.25 5.25 17.25H3.75C2.88439 17.25 2.09743 17.0331 1.53217 16.4678C0.96691 15.9026 0.75 15.1156 0.75 14.25V12.75C0.75 11.8844 0.96691 11.0974 1.53217 10.5322ZM2.59283 11.5928C2.40809 11.7776 2.25 12.1156 2.25 12.75V14.25C2.25 14.8844 2.40809 15.2224 2.59283 15.4072C2.77757 15.5919 3.11561 15.75 3.75 15.75H5.25C5.88439 15.75 6.22243 15.5919 6.40717 15.4072C6.59191 15.2224 6.75 14.8844 6.75 14.25V12.75C6.75 12.1156 6.59191 11.7776 6.40717 11.5928C6.22243 11.4081 5.88439 11.25 5.25 11.25H3.75C3.11561 11.25 2.77757 11.4081 2.59283 11.5928Z" fill="white"/>
</svg>
