<svg width="24" height="24" viewBox="0 0 24 24" fill="none" xmlns="http://www.w3.org/2000/svg">
<path d="M14.9532 16.0766H1.15246C0.518607 16.0766 0 15.558 0 14.9242C0 14.2903 0.518607 13.7717 1.15246 13.7717H14.9532C15.587 13.7717 16.1056 14.2903 16.1056 14.9242C16.1056 15.558 15.587 16.0766 14.9532 16.0766Z" fill="white"/>
<path d="M12.0146 23.1355C10.891 23.1355 9.76733 22.9627 8.7013 22.6457C8.09626 22.4441 7.75052 21.8102 7.95221 21.2052C8.15389 20.6001 8.78774 20.2544 9.39278 20.4561C10.2283 20.7154 11.1215 20.8594 12.0146 20.8594C15.933 20.8594 19.3328 18.3528 20.4564 14.6073C20.6293 14.0023 21.2919 13.6565 21.897 13.8294C22.502 14.0023 22.8478 14.6649 22.6749 15.27C21.2055 19.9663 16.9414 23.1355 12.0146 23.1355Z" fill="white"/>
<path d="M22.8477 10.228H9.04699C8.41314 10.228 7.89453 9.70941 7.89453 9.07556C7.89453 8.4417 8.41314 7.9231 9.04699 7.9231H22.8477C23.4816 7.9231 24.0002 8.4417 24.0002 9.07556C24.0002 9.70941 23.4816 10.228 22.8477 10.228Z" fill="white"/>
<path d="M2.4494 10.228C2.33415 10.228 2.21891 10.1992 2.10366 10.1704C1.49862 9.99751 1.15288 9.33484 1.32575 8.7298C2.79514 4.03352 7.05924 0.864258 12.0148 0.864258C13.1385 0.864258 14.2621 1.03713 15.3281 1.35405C15.9332 1.55573 16.2789 2.18959 16.0772 2.79463C15.8756 3.39967 15.2417 3.74541 14.6367 3.54373C13.8011 3.28443 12.908 3.14037 12.0148 3.14037C8.09646 3.14037 4.6967 5.64697 3.57305 9.39247C3.40018 9.91107 2.93919 10.228 2.4494 10.228Z" fill="white"/>
<path d="M18.8429 5.84862C19.4794 5.84862 19.9954 5.33265 19.9954 4.69616C19.9954 4.05968 19.4794 3.5437 18.8429 3.5437C18.2064 3.5437 17.6904 4.05968 17.6904 4.69616C17.6904 5.33265 18.2064 5.84862 18.8429 5.84862Z" fill="white"/>
<path d="M5.15734 20.4849C5.79383 20.4849 6.3098 19.9689 6.3098 19.3324C6.3098 18.6959 5.79383 18.1799 5.15734 18.1799C4.52086 18.1799 4.00488 18.6959 4.00488 19.3324C4.00488 19.9689 4.52086 20.4849 5.15734 20.4849Z" fill="white"/>
</svg>
