<svg width="38" height="26" viewBox="0 0 38 26" fill="none" xmlns="http://www.w3.org/2000/svg">
<path fill-rule="evenodd" clip-rule="evenodd" d="M15.8973 2.83563C17.0902 1.58804 18.7522 0.813317 20.5893 0.813317C23.0314 0.813317 25.1628 2.18075 26.2974 4.21079C27.3126 3.75551 28.4123 3.52085 29.5242 3.52219C33.9293 3.52219 37.5 7.13863 37.5 11.6005C37.5 16.0623 33.9293 19.6787 29.5242 19.6787C28.9856 19.6787 28.4603 19.6247 27.9525 19.5219C26.9534 21.3107 25.0482 22.5197 22.8627 22.5197C21.9477 22.5197 21.0822 22.3084 20.3121 21.9302C19.2988 24.323 16.9385 26 14.188 26C11.3238 26 8.88212 24.18 7.94534 21.6283C7.52794 21.7168 7.10251 21.7613 6.67592 21.7612C3.26505 21.7616 0.500017 18.9568 0.500017 15.4968C0.497458 14.4003 0.781229 13.3223 1.32304 12.3702C1.86485 11.4181 2.64578 10.6252 3.58797 10.0705C3.19709 9.16632 2.99597 8.19095 2.99717 7.20525C2.99717 3.22563 6.21461 4.90316e-06 10.1835 4.90316e-06C11.2891 -0.00129013 12.3801 0.253968 13.3713 0.745854C14.3624 1.23774 15.2269 1.95294 15.8973 2.83563Z" fill="white"/>
</svg>
