<svg width="60" height="60" viewBox="0 0 60 60" fill="none" xmlns="http://www.w3.org/2000/svg">
<g filter="url(#filter0_b_261_9475)">
<rect width="60" height="60" rx="8" fill="white" fill-opacity="0.3"/>
<rect x="0.5" y="0.5" width="59" height="59" rx="7.5" stroke="url(#paint0_linear_261_9475)" stroke-opacity="0.4"/>
<path d="M21.6999 23.7379L26.577 26.6624C26.8471 26.8247 27.1641 26.8908 27.4766 26.8498C27.789 26.8089 28.0784 26.6634 28.2975 26.437C28.444 26.2959 28.5603 26.1264 28.6393 25.939C28.7184 25.7516 28.7586 25.5501 28.7576 25.3467V19.4855C28.7673 19.2287 28.7077 18.9741 28.5849 18.7485C28.4621 18.5228 28.2807 18.3344 28.0598 18.2032C27.839 18.072 27.5869 18.0027 27.33 18.0027C27.0732 18.0027 26.821 18.072 26.6002 18.2032C26.3794 18.3344 26.198 18.5228 26.0752 18.7485C25.9524 18.9741 25.8927 19.2287 25.9025 19.4855V22.8208L23.1329 21.1599C22.9696 21.063 22.7885 20.9997 22.6003 20.974C22.4121 20.9482 22.2207 20.9604 22.0373 21.0099C21.6677 21.1093 21.3557 21.3624 21.175 21.7013C20.7787 22.4137 21.01 23.306 21.6999 23.7342M33.4239 26.6586L38.301 23.7342C38.9909 23.3056 39.2226 22.4095 38.8259 21.7005C38.7362 21.5333 38.6136 21.3859 38.4654 21.2673C38.3172 21.1486 38.1465 21.0613 37.9636 21.0104C37.7807 20.9595 37.5894 20.9462 37.4013 20.9713C37.2131 20.9963 37.032 21.0592 36.8688 21.1562L34.1318 22.7946V19.4802C34.1387 19.2884 34.107 19.0971 34.0384 18.9179C33.9697 18.7386 33.8657 18.575 33.7325 18.4369C33.5992 18.2987 33.4395 18.1888 33.2628 18.1137C33.0862 18.0387 32.8962 18 32.7043 18C32.5123 18 32.3223 18.0387 32.1457 18.1137C31.969 18.1888 31.8093 18.2987 31.676 18.4369C31.5428 18.575 31.4388 18.7386 31.3701 18.9179C31.3015 19.0971 31.2698 19.2884 31.2767 19.4802V25.2253C31.2474 25.533 31.3119 25.8424 31.4619 26.1127C31.6426 26.4513 31.9546 26.7013 32.3243 26.8041C32.5074 26.8553 32.6991 26.8684 32.8876 26.8426C33.076 26.8168 33.2571 26.7527 33.4198 26.6541M29.083 29.9887C29.0879 29.895 29.1235 29.8013 29.185 29.7338L29.7549 29.1414C29.8224 29.0786 29.9096 29.0412 30.0016 29.0357H30.0229C30.1148 29.0411 30.2018 29.0785 30.2689 29.1414L30.8388 29.7338C30.9005 29.805 30.9364 29.895 30.9408 29.9891V30.0116C30.9363 30.1059 30.9004 30.1961 30.8388 30.2677L30.2689 30.8601C30.2021 30.9235 30.1149 30.9612 30.0229 30.9665H30.0016C29.9093 30.9613 29.8216 30.9234 29.7549 30.8601L29.185 30.2677C29.1234 30.1961 29.0875 30.1059 29.083 30.0116V29.9887ZM27.3568 29.745V30.2564C27.3632 30.3849 27.4123 30.5077 27.4963 30.6051L29.4309 32.6136C29.5222 32.6999 29.6411 32.7512 29.7665 32.7583H30.2584C30.3838 32.7512 30.5027 32.6999 30.594 32.6136L32.5286 30.6051C32.6126 30.5077 32.6617 30.3849 32.6681 30.2564V29.745C32.6617 29.6165 32.6126 29.4938 32.5286 29.3963L30.594 27.3878C30.5027 27.3015 30.3838 27.2503 30.2584 27.2431H29.7665C29.6411 27.2503 29.5222 27.3015 29.4309 27.3878L27.4963 29.4001C27.4125 29.4977 27.3634 29.6203 27.3568 29.7488M19.1766 28.3578L21.938 30.0138L19.1766 31.6684C18.8448 31.8751 18.6051 32.2017 18.5075 32.5803C18.4098 32.9589 18.4616 33.3606 18.6521 33.702C18.7417 33.8695 18.8643 34.0172 19.0125 34.136C19.1607 34.2548 19.3315 34.3424 19.5144 34.3934C19.8841 34.4961 20.28 34.4433 20.61 34.2464L25.4871 31.322C25.937 31.0363 26.1994 30.5429 26.1994 30.0127C26.1994 29.7524 26.1342 29.4962 26.0098 29.2675C25.8853 29.0388 25.7056 28.8449 25.4871 28.7035L20.61 25.779C20.4467 25.6821 20.2656 25.6189 20.0774 25.5931C19.8892 25.5673 19.6978 25.5796 19.5144 25.6291C19.1448 25.7284 18.8328 25.9815 18.6521 26.3204C18.2558 27.0328 18.4871 27.9244 19.177 28.3533M33.7974 30.0187C33.793 30.2795 33.8568 30.5369 33.9824 30.7656C34.108 30.9942 34.291 31.1861 34.5135 31.3223L39.3875 34.2468C39.7175 34.4433 40.1127 34.4965 40.4823 34.3938C40.852 34.291 41.1636 34.0413 41.3447 33.7028C41.5361 33.3615 41.5883 32.9595 41.4905 32.5806C41.3927 32.2017 41.1524 31.8752 40.8198 31.6692L38.0618 30.0142L40.8231 28.3582C41.513 27.9296 41.7443 27.0347 41.348 26.3253C41.2586 26.1576 41.1361 26.0099 40.9879 25.8911C40.8396 25.7722 40.6688 25.6847 40.4857 25.6339C40.1157 25.5312 39.7201 25.5837 39.3909 25.7839L34.5168 28.7083C34.2927 28.8456 34.1086 29.0393 33.983 29.27C33.8573 29.5008 33.7944 29.7605 33.8007 30.0232M27.5563 33.1899C27.2197 33.1249 26.871 33.1869 26.5774 33.3638L21.7003 36.2883C21.0104 36.7168 20.7795 37.6118 21.1754 38.3211C21.3565 38.6597 21.668 38.9098 22.0377 39.0121C22.2208 39.0629 22.4122 39.0761 22.6005 39.0508C22.7888 39.0256 22.97 38.9624 23.1333 38.8652L25.9029 37.2042V40.5148C25.8952 40.7071 25.9265 40.8988 25.9948 41.0787C26.0631 41.2585 26.167 41.4227 26.3003 41.5614C26.4336 41.7001 26.5935 41.8104 26.7705 41.8858C26.9475 41.9612 27.1378 42 27.3302 42C27.5226 42 27.7129 41.9612 27.8899 41.8858C28.0669 41.8104 28.2268 41.7001 28.3601 41.5614C28.4934 41.4227 28.5973 41.2585 28.6656 41.0787C28.7339 40.8988 28.7652 40.7071 28.7576 40.5148V34.6491C28.7626 34.3025 28.6447 33.9653 28.4247 33.6974C28.2047 33.4295 27.8969 33.2482 27.5559 33.1857M38.3014 36.2887L33.4243 33.3642C33.2611 33.267 33.0799 33.2038 32.8916 33.1785C32.7033 33.1533 32.5118 33.1664 32.3288 33.2172C32.1457 33.268 31.9749 33.3554 31.8267 33.4742C31.6784 33.593 31.5559 33.7406 31.4664 33.9082C31.3164 34.1789 31.2519 34.4887 31.2812 34.7968V40.5145C31.2736 40.7067 31.3048 40.8985 31.3731 41.0783C31.4414 41.2581 31.5453 41.4223 31.6786 41.561C31.8119 41.6997 31.9719 41.81 32.1488 41.8854C32.3258 41.9608 32.5162 41.9996 32.7086 41.9996C32.9009 41.9996 33.0913 41.9608 33.2683 41.8854C33.4453 41.81 33.6052 41.6997 33.7385 41.561C33.8718 41.4223 33.9757 41.2581 34.044 41.0783C34.1123 40.8985 34.1435 40.7067 34.1359 40.5145V37.2286L36.868 38.867C37.0313 38.964 37.2124 39.0272 37.4006 39.053C37.5888 39.0787 37.7802 39.0665 37.9636 39.017C38.3332 38.9177 38.6452 38.6646 38.8259 38.3256C39.2222 37.6133 38.9909 36.7209 38.301 36.2928" fill="white"/>
</g>
<defs>
<filter id="filter0_b_261_9475" x="-16" y="-16" width="92" height="92" filterUnits="userSpaceOnUse" color-interpolation-filters="sRGB">
<feFlood flood-opacity="0" result="BackgroundImageFix"/>
<feGaussianBlur in="BackgroundImageFix" stdDeviation="8"/>
<feComposite in2="SourceAlpha" operator="in" result="effect1_backgroundBlur_261_9475"/>
<feBlend mode="normal" in="SourceGraphic" in2="effect1_backgroundBlur_261_9475" result="shape"/>
</filter>
<linearGradient id="paint0_linear_261_9475" x1="2.6427" y1="-1.2612e-06" x2="71.4406" y2="26.0516" gradientUnits="userSpaceOnUse">
<stop stop-color="white"/>
<stop offset="0.21206" stop-color="white" stop-opacity="0"/>
<stop offset="0.489583" stop-color="white" stop-opacity="0"/>
<stop offset="0.775473" stop-color="white" stop-opacity="0"/>
<stop offset="1" stop-color="white"/>
</linearGradient>
</defs>
</svg>
