<svg width="24" height="24" viewBox="0 0 24 24" fill="none" xmlns="http://www.w3.org/2000/svg">
<path d="M3.70015 5.73791L8.57722 8.66235C8.84729 8.82467 9.16437 8.89075 9.4768 8.84983C9.78923 8.80892 10.0786 8.66341 10.2978 8.43702C10.4442 8.29586 10.5605 8.12645 10.6396 7.93904C10.7186 7.75163 10.7589 7.55013 10.7578 7.34673V1.48547C10.7676 1.22874 10.7079 0.974142 10.5851 0.74848C10.4623 0.522817 10.2809 0.334447 10.0601 0.203211C9.83925 0.0719791 9.58713 0.00271647 9.33026 0.00271647C9.0734 0.00271647 8.82128 0.0719791 8.60047 0.203211C8.37961 0.334447 8.19823 0.522817 8.07543 0.74848C7.95264 0.974142 7.89297 1.22874 7.90272 1.48547V4.82083L5.13312 3.1599C4.96981 3.06296 4.78871 2.99974 4.60054 2.97398C4.41237 2.94822 4.22095 2.96044 4.03758 3.00993C3.6679 3.10928 3.35596 3.36236 3.17525 3.7013C2.77895 4.41366 3.01028 5.30599 3.70015 5.73416M15.4242 8.6586L20.3012 5.73416C20.9911 5.30562 21.2228 4.40954 20.8261 3.70055C20.7364 3.53326 20.6138 3.38587 20.4656 3.26725C20.3174 3.14864 20.1467 3.06127 19.9638 3.0104C19.781 2.95953 19.5897 2.94622 19.4015 2.97127C19.2134 2.99632 19.0322 3.05921 18.869 3.15615L16.132 4.79459V1.48022C16.139 1.2884 16.1072 1.09714 16.0386 0.91788C15.97 0.738615 15.866 0.575016 15.7327 0.436853C15.5995 0.298691 15.4397 0.188799 15.2631 0.113742C15.0864 0.038684 14.8964 0 14.7045 0C14.5125 0 14.3226 0.038684 14.1459 0.113742C13.9692 0.188799 13.8095 0.298691 13.6763 0.436853C13.543 0.575016 13.439 0.738615 13.3704 0.91788C13.3018 1.09714 13.27 1.2884 13.277 1.48022V7.22525C13.2476 7.53299 13.3122 7.8424 13.4622 8.11271C13.6429 8.45127 13.9548 8.70135 14.3245 8.80408C14.5077 8.8553 14.6994 8.86843 14.8878 8.84263C15.0763 8.81684 15.2574 8.75267 15.42 8.65411M11.0832 11.9887C11.0881 11.895 11.1237 11.8013 11.1852 11.7338L11.7551 11.1414C11.8226 11.0786 11.9098 11.0412 12.0018 11.0357H12.0232C12.115 11.0411 12.202 11.0785 12.2691 11.1414L12.839 11.7338C12.9007 11.805 12.9366 11.895 12.941 11.9891V12.0116C12.9365 12.1059 12.9006 12.1961 12.839 12.2677L12.2691 12.8601C12.2023 12.9235 12.1152 12.9612 12.0232 12.9665H12.0018C11.9096 12.9613 11.8219 12.9234 11.7551 12.8601L11.1852 12.2677C11.1236 12.1961 11.0877 12.1059 11.0832 12.0116V11.9887ZM9.35707 11.745V12.2564C9.36341 12.3849 9.4125 12.5077 9.49655 12.6051L11.4312 14.6136C11.5225 14.6999 11.6413 14.7512 11.7667 14.7583H12.2586C12.3841 14.7512 12.5029 14.6999 12.5942 14.6136L14.5288 12.6051C14.6129 12.5077 14.662 12.3849 14.6683 12.2564V11.745C14.662 11.6165 14.6129 11.4938 14.5288 11.3963L12.5942 9.38784C12.5029 9.30152 12.3841 9.25026 12.2586 9.24312H11.7667C11.6413 9.25026 11.5225 9.30152 11.4312 9.38784L9.49655 11.4001C9.41275 11.4977 9.36369 11.6203 9.35707 11.7488M1.17688 10.3578L3.93823 12.0138L1.17688 13.6684C0.844996 13.8751 0.605394 14.2017 0.507739 14.5803C0.410084 14.9589 0.461866 15.3606 0.652351 15.702C0.741928 15.8695 0.864522 16.0172 1.01273 16.136C1.16094 16.2548 1.3317 16.3424 1.51469 16.3934C1.88437 16.4961 2.28029 16.4433 2.61023 16.2464L7.4873 13.322C7.93722 13.0363 8.19967 12.5429 8.19967 12.0127C8.19963 11.7524 8.13443 11.4962 8.01 11.2675C7.88557 11.0388 7.70588 10.8449 7.4873 10.7035L2.61023 7.77902C2.44691 7.68208 2.26581 7.61886 2.07764 7.5931C1.88948 7.56734 1.69805 7.57957 1.51469 7.62905C1.14501 7.72841 0.833067 7.98148 0.652351 8.32042C0.256051 9.03278 0.487382 9.92436 1.17725 10.3533M15.7976 12.0187C15.7933 12.2795 15.8571 12.5369 15.9827 12.7656C16.1082 12.9942 16.2913 13.1861 16.5137 13.3223L21.3878 16.2468C21.7177 16.4433 22.1129 16.4965 22.4826 16.3938C22.8523 16.291 23.1638 16.0413 23.3449 15.7028C23.5363 15.3615 23.5886 14.9595 23.4908 14.5806C23.393 14.2017 23.1527 13.8752 22.82 13.6692L20.062 12.0142L22.8234 10.3582C23.5133 9.92961 23.7446 9.03466 23.3483 8.32529C23.2589 8.15764 23.1364 8.00991 22.9881 7.89106C22.8399 7.77221 22.669 7.68473 22.486 7.63392C22.1159 7.53119 21.7203 7.58368 21.3912 7.7839L16.5171 10.7083C16.293 10.8456 16.1089 11.0393 15.9832 11.27C15.8575 11.5008 15.7947 11.7605 15.801 12.0232M9.55653 15.1899C9.21994 15.1249 8.8712 15.1869 8.5776 15.3638L3.70052 18.2883C3.01065 18.7168 2.7797 19.6118 3.17562 20.3211C3.35671 20.6597 3.66828 20.9098 4.03796 21.0121C4.22102 21.0629 4.41248 21.0761 4.60078 21.0508C4.78907 21.0256 4.97029 20.9624 5.1335 20.8652L7.9031 19.2042V22.5148C7.89547 22.7071 7.92673 22.8988 7.99503 23.0787C8.06332 23.2585 8.16723 23.4227 8.30052 23.5614C8.43382 23.7001 8.59375 23.8104 8.77073 23.8858C8.94771 23.9612 9.13809 24 9.33045 24C9.52281 24 9.71319 23.9612 9.89017 23.8858C10.0672 23.8104 10.2271 23.7001 10.3604 23.5614C10.4937 23.4227 10.5976 23.2585 10.6659 23.0787C10.7342 22.8988 10.7654 22.7071 10.7578 22.5148V16.6491C10.7629 16.3025 10.6449 15.9653 10.4249 15.6974C10.2049 15.4295 9.89713 15.2482 9.55616 15.1857M20.3016 18.2887L15.4245 15.3642C15.2613 15.267 15.0801 15.2038 14.8918 15.1785C14.7035 15.1533 14.5121 15.1664 14.329 15.2172C14.146 15.268 13.9751 15.3554 13.8269 15.4742C13.6787 15.593 13.5561 15.7406 13.4667 15.9082C13.3167 16.1789 13.2521 16.4887 13.2815 16.7968V22.5145C13.2738 22.7067 13.3051 22.8985 13.3734 23.0783C13.4417 23.2581 13.5456 23.4223 13.6789 23.561C13.8122 23.6997 13.9721 23.81 14.1491 23.8854C14.3261 23.9608 14.5164 23.9996 14.7088 23.9996C14.9012 23.9996 15.0915 23.9608 15.2685 23.8854C15.4455 23.81 15.6054 23.6997 15.7387 23.561C15.872 23.4223 15.9759 23.2581 16.0442 23.0783C16.1125 22.8985 16.1438 22.7067 16.1362 22.5145V19.2286L18.8683 20.867C19.0316 20.964 19.2127 21.0272 19.4009 21.053C19.589 21.0787 19.7804 21.0665 19.9638 21.017C20.3335 20.9177 20.6454 20.6646 20.8261 20.3256C21.2224 19.6133 20.9911 18.7209 20.3012 18.2928" fill="white"/>
</svg>
